<?xml version="1.0" encoding="UTF-8" standalone="no"?>
<!-- Created with Inkscape (http://www.inkscape.org/) -->

<svg
   width="58.877987mm"
   height="54.41571mm"
   viewBox="0 0 58.877987 54.41571"
   version="1.1"
   id="svg1"
   xmlns:inkscape="http://www.inkscape.org/namespaces/inkscape"
   xmlns:sodipodi="http://sodipodi.sourceforge.net/DTD/sodipodi-0.dtd"
   xmlns="http://www.w3.org/2000/svg"
   xmlns:svg="http://www.w3.org/2000/svg">
  <sodipodi:namedview
     id="namedview1"
     pagecolor="#ffffff"
     bordercolor="#000000"
     borderopacity="0.25"
     inkscape:showpageshadow="2"
     inkscape:pageopacity="0.0"
     inkscape:pagecheckerboard="0"
     inkscape:deskcolor="#d1d1d1"
     inkscape:document-units="mm"
     inkscape:export-bgcolor="#ffffff5c">
    <inkscape:page
       x="0"
       y="0"
       width="58.877987"
       height="54.41571"
       id="page2"
       margin="0"
       bleed="0" />
  </sodipodi:namedview>
  <defs
     id="defs1" />
  <g
     inkscape:label="Camada 1"
     inkscape:groupmode="layer"
     id="layer1"
     transform="translate(-0.62729252,-2.2134965)">
    <g
       id="g1"
       transform="translate(-23.71437,-108.91146)">
      <path
         fill="#000000"
         opacity="1"
         stroke="none"
         d="m 39.222477,111.16728 c 10.095436,-4e-5 20.061179,0.12503 30.022133,-0.0401 7.715826,-0.12787 14.047917,5.26744 13.974405,14.02929 -0.07472,8.90496 -0.01675,17.81104 -0.01503,26.71663 0.0016,7.88966 -5.786388,13.66368 -13.696127,13.66372 -10.360465,5e-5 -20.720918,0.006 -31.081379,0.003 -7.487643,-0.003 -12.734891,-4.41553 -13.979097,-11.76351 -0.102126,-0.60312 -0.102756,-1.22817 -0.103118,-1.84307 -0.0053,-8.90558 7.93e-4,-17.81117 -0.0026,-26.71676 -0.0033,-8.46313 5.528127,-14.03504 13.955625,-14.04775 0.264477,-5.3e-4 0.528947,-5.3e-4 0.925184,-10e-4 m 20.847677,36.11223 c -0.33696,0.23819 -0.519282,0.71469 -1.065017,0.69486 -0.09767,-0.78617 0.785514,-1.03024 0.893728,-1.70443 -0.756721,-0.17909 -1.105278,0.40008 -1.517335,0.81561 -1.584528,1.59784 -3.194669,3.15762 -5.270219,4.12877 -0.603435,0.28235 -1.262253,0.3785 -1.22273,-0.49198 0.09102,-2.00486 -0.63809,-4.05227 0.341202,-6.0205 0.448826,-0.9021 0.745125,-1.87909 1.131416,-2.81351 0.72263,-1.74803 1.474732,-3.48259 2.042832,-5.29205 0.551098,-1.7553 -0.108116,-3.13519 -1.36135,-4.25234 -1.793197,-1.59845 -4.398359,-0.97174 -5.380405,1.21251 -1.318816,2.93332 -2.467396,5.9294 -3.345225,9.02573 -0.555151,1.95814 -0.841132,3.94465 -0.770617,5.99114 0.0921,2.67289 1.316812,4.67804 3.664206,5.82198 2.417998,1.17834 4.884828,1.02642 7.130815,-0.57774 3.022991,-2.15915 5.11448,-5.10284 7.133738,-8.6053 -0.957501,0.81449 -1.618393,1.37666 -2.405039,2.06725 M 52.9649,127.83615 c 2.094608,0.89073 3.323571,0.58395 4.743299,-1.17213 0.386363,-0.4779 0.75756,-0.97595 1.196906,-1.40162 1.109366,-1.07482 1.154097,-2.13445 0.08643,-3.26432 -1.298548,-1.37421 -4.622313,-1.20893 -5.982065,0.29746 -1.297104,1.43699 -1.409943,4.30582 -0.04457,5.54061 z"
         id="path1"
         style="stroke-width:0.264583" />
      <path
         fill="#000000"
         opacity="1"
         stroke="none"
         d="m 46.42299,151.00569 c 0.221094,0.53535 0.617914,0.94464 0.401955,1.61386 -0.908391,-0.531 -1.032592,-1.26259 -0.973947,-2.11187 0.34875,0.0159 0.404649,0.25762 0.571992,0.49801 z"
         id="path9"
         style="stroke-width:0.264583" />
    </g>
  </g>
</svg>
